<?xml version="1.0" encoding="UTF-8"?>
<svg width="100px" height="100px" viewBox="0 0 100 100" version="1.1" xmlns="http://www.w3.org/2000/svg">
    <title>BBC Logo</title>
    <g id="BBC-Logo" fill="#000000">
        <path d="M10,30 L30,30 C35.5228475,30 40,34.4771525 40,40 L40,40 C40,45.5228475 35.5228475,50 30,50 L10,50 L10,70 L30,70 C41.045695,70 50,61.045695 50,50 L50,40 C50,28.954305 41.045695,20 30,20 L10,20 L10,30 Z" id="B-Shape-1"></path>
        <path d="M50,30 L70,30 C75.5228475,30 80,34.4771525 80,40 L80,40 C80,45.5228475 75.5228475,50 70,50 L50,50 L50,70 L70,70 C81.045695,70 90,61.045695 90,50 L90,40 C90,28.954305 81.045695,20 70,20 L50,20 L50,30 Z" id="B-Shape-2"></path>
        <circle id="C-Shape" cx="50" cy="85" r="5"></circle>
    </g>
</svg>