<?xml version="1.0" encoding="UTF-8"?>
<svg width="100px" height="100px" viewBox="0 0 100 100" version="1.1" xmlns="http://www.w3.org/2000/svg">
    <title>Bloomberg Logo</title>
    <g id="Bloomberg-Logo" fill="#000000">
        <path d="M50,0 C77.6142375,0 100,22.3857625 100,50 C100,77.6142375 77.6142375,100 50,100 C22.3857625,100 0,77.6142375 0,50 C0,22.3857625 22.3857625,0 50,0 Z M50,10 C27.90861,10 10,27.90861 10,50 C10,72.09139 27.90861,90 50,90 C72.09139,90 90,72.09139 90,50 C90,27.90861 72.09139,10 50,10 Z" id="Circle-Outline"></path>
        <path d="M28,35 L28,65 L35,65 L35,58 L39,65 L48,65 L42,56 C44.7614237,55 47,52.7614237 47,50 L47,47 C47,44.2385763 44.7614237,42 42,42 L42,42 C42.7614237,42 43,41.7614237 43,41 L43,35 L35,35 L35,43 L33,43 L33,35 L28,35 Z M33,46 L40,46 C41.1045695,46 42,46.8954305 42,48 L42,51 C42,52.1045695 41.1045695,53 40,53 L33,53 L33,46 Z" id="B-Shape"></path>
        <path d="M50,35 L50,65 L57,65 L57,53 L63,53 C66.3137085,53 69,50.3137085 69,47 L69,41 C69,37.6862915 66.3137085,35 63,35 L50,35 Z M57,41 L61,41 C62.1045695,41 63,41.8954305 63,43 L63,45 C63,46.1045695 62.1045695,47 61,47 L57,47 L57,41 Z" id="P-Shape"></path>
    </g>
</svg>