<?xml version="1.0" encoding="UTF-8"?>
<svg width="100px" height="100px" viewBox="0 0 100 100" version="1.1" xmlns="http://www.w3.org/2000/svg">
    <title>CNBC Logo</title>
    <g id="CNBC-Logo" fill="#000000">
        <path d="M10,30 C10,24.4771525 14.4771525,20 20,20 L30,20 C35.5228475,20 40,24.4771525 40,30 L40,70 C40,75.5228475 35.5228475,80 30,80 L20,80 C14.4771525,80 10,75.5228475 10,70 L10,30 Z M20,30 L20,70 L30,70 L30,30 L20,30 Z" id="C-Shape"></path>
        <path d="M45,50 L45,30 C45,24.4771525 49.4771525,20 55,20 L65,20 L65,30 L55,30 L55,70 L65,70 L65,80 L55,80 C49.4771525,80 45,75.5228475 45,70 L45,50 Z" id="N-Shape-1"></path>
        <rect id="N-Shape-2" x="65" y="20" width="10" height="60"></rect>
        <path d="M80,30 C80,24.4771525 84.4771525,20 90,20 L90,80 C84.4771525,80 80,75.5228475 80,70 L80,30 Z" id="C-Shape-Right"></path>
    </g>
</svg>